<?xml version="1.0" encoding="UTF-8"?>
<svg width="81px" height="80px" viewBox="0 0 81 80" version="1.1" xmlns="http://www.w3.org/2000/svg" xmlns:xlink="http://www.w3.org/1999/xlink">
    <!-- Generator: sketchtool 60.1 (101010) - https://sketch.com -->
    <title>537B924A-8E3B-42F5-B46E-9104766FA373</title>
    <desc>Created with sketchtool.</desc>
    <g id="Asset-Artboard-Page" stroke="none" stroke-width="1" fill="none" fill-rule="evenodd">
        <g id="icon/tier1/80/iconSearch/Dark" transform="translate(0.600000, 0.000000)">
            <rect id="boundingBox" fill="#FFFFFF" opacity="0" x="0" y="0" width="80" height="80"></rect>
            <path d="M40.2867591,56 C56.6969289,56 70,42.8374611 70,26.6006466 C70,10.3638321 49.9282034,-7.40145223 37.6462269,10.4604855 C25.3642504,28.3224233 18.1357099,17.4108507 10.5919326,28.0825401 C3.04815535,38.7542296 23.8765892,56 40.2867591,56 Z" id="Circle" fill="#F6F6F6"></path>
            <g id="Group-4" transform="translate(40.500000, 41.000000) rotate(-45.000000) translate(-40.500000, -41.000000) translate(24.000000, 12.000000)">
                <path d="M19.8,38.1857864 L19.8,55.5107864 C19.8,56.4220563 19.0612698,57.1607864 18.15,57.1607864 L14.85,57.1607864 C13.9387302,57.1607864 13.2,56.4220563 13.2,55.5107864 L13.2,38.1857864 L13.2,38.1857864" id="Rectangle" stroke="#000000" stroke-width="1.5"></path>
                <polyline id="Rectangle" stroke="#000000" stroke-width="1.5" fill-rule="nonzero" points="21.4497475 33.7426407 21.45 38.1857864 11.55 38.1857864 11.5497475 33.7426407"></polyline>
                <circle id="Oval" stroke="#000000" stroke-width="1.5" fill-rule="nonzero" cx="16.5" cy="16.5" r="16.5"></circle>
                <circle id="Oval" stroke="#0F76DE" stroke-width="2" fill="#DBEAFA" fill-rule="nonzero" cx="16.5" cy="16.5" r="10.55"></circle>
            </g>
        </g>
    </g>
</svg>